# xmcd
# Track frame offsets:
# 150
# 16066
# 38193
# 57256
# 75491
# 90915
# 106896
# 128514
# 144749
# 166363
#
# Disc length: 2386 seconds
# Revision: 0
# Processed by: cddbd v1.4PL0 Copyright (c) Steve Scherf et al.
# Submitted via: VisiTrax 2.9.5.180 - For more info visit www.synapsa.com
#
DISCID=6e09500a
DTITLE=Bente Boe - Cross the river
DYEAR=1998
DGENRE=
TTITLE0=Love me tender
TTITLE1=Catch you when you fall
TTITLE2=Down that road before
TTITLE3=Kisses in the moonlight
TTITLE4=Cup of tea
TTITLE5=Who needs a broken heart
TTITLE6=Cross the river
TTITLE7=Lies and love
TTITLE8=Bye bye baby goodbye
TTITLE9=T-R-O-U-B-L-E
EXTD=
EXTT0=
EXTT1=
EXTT2=
EXTT3=
EXTT4=
EXTT5=
EXTT6=
EXTT7=
EXTT8=
EXTT9=
PLAYORDER=
